<mxfile host="app.diagrams.net" modified="2023-06-06T19:18:36.329Z" agent="Mozilla/5.0 (Windows NT 10.0; Win64; x64) AppleWebKit/537.36 (KHTML, like Gecko) Chrome/114.0.0.0 Safari/537.36" version="21.3.7" etag="xxIscHbK6RQg6OW9WtN3" type="device">
  <diagram id="jhTcJuvbBkthQaZ20LmQ" name="Page-1">
    <mxGraphModel dx="882" dy="596" grid="1" gridSize="10" guides="1" tooltips="1" connect="1" arrows="1" fold="1" page="1" pageScale="1" pageWidth="850" pageHeight="1100" math="0" shadow="0">
      <root>
        <mxCell id="0" />
        <mxCell id="1" parent="0" />
        <mxCell id="12nJAnWYhsMqt3iqN0e7-11" style="edgeStyle=orthogonalEdgeStyle;rounded=0;orthogonalLoop=1;jettySize=auto;html=1;exitX=0.5;exitY=1;exitDx=0;exitDy=0;entryX=0.5;entryY=0;entryDx=0;entryDy=0;" edge="1" parent="1" source="12nJAnWYhsMqt3iqN0e7-1" target="12nJAnWYhsMqt3iqN0e7-2">
          <mxGeometry relative="1" as="geometry" />
        </mxCell>
        <mxCell id="12nJAnWYhsMqt3iqN0e7-1" value="Documents" style="rounded=1;whiteSpace=wrap;html=1;" vertex="1" parent="1">
          <mxGeometry x="40" y="40" width="120" height="60" as="geometry" />
        </mxCell>
        <mxCell id="12nJAnWYhsMqt3iqN0e7-12" style="edgeStyle=orthogonalEdgeStyle;rounded=0;orthogonalLoop=1;jettySize=auto;html=1;exitX=1;exitY=0.25;exitDx=0;exitDy=0;entryX=0;entryY=0.5;entryDx=0;entryDy=0;" edge="1" parent="1" source="12nJAnWYhsMqt3iqN0e7-2" target="12nJAnWYhsMqt3iqN0e7-3">
          <mxGeometry relative="1" as="geometry" />
        </mxCell>
        <mxCell id="12nJAnWYhsMqt3iqN0e7-13" style="edgeStyle=orthogonalEdgeStyle;rounded=0;orthogonalLoop=1;jettySize=auto;html=1;exitX=1;exitY=0.5;exitDx=0;exitDy=0;entryX=0;entryY=0.5;entryDx=0;entryDy=0;" edge="1" parent="1" source="12nJAnWYhsMqt3iqN0e7-2" target="12nJAnWYhsMqt3iqN0e7-5">
          <mxGeometry relative="1" as="geometry" />
        </mxCell>
        <mxCell id="12nJAnWYhsMqt3iqN0e7-14" style="edgeStyle=orthogonalEdgeStyle;rounded=0;orthogonalLoop=1;jettySize=auto;html=1;exitX=1;exitY=0.75;exitDx=0;exitDy=0;entryX=0;entryY=0.5;entryDx=0;entryDy=0;" edge="1" parent="1" source="12nJAnWYhsMqt3iqN0e7-2" target="12nJAnWYhsMqt3iqN0e7-6">
          <mxGeometry relative="1" as="geometry" />
        </mxCell>
        <mxCell id="12nJAnWYhsMqt3iqN0e7-2" value="Cluster manager" style="rounded=1;whiteSpace=wrap;html=1;" vertex="1" parent="1">
          <mxGeometry x="40" y="160" width="120" height="60" as="geometry" />
        </mxCell>
        <mxCell id="12nJAnWYhsMqt3iqN0e7-15" style="edgeStyle=orthogonalEdgeStyle;rounded=0;orthogonalLoop=1;jettySize=auto;html=1;exitX=1;exitY=0.5;exitDx=0;exitDy=0;entryX=0;entryY=0.5;entryDx=0;entryDy=0;" edge="1" parent="1" source="12nJAnWYhsMqt3iqN0e7-3" target="12nJAnWYhsMqt3iqN0e7-7">
          <mxGeometry relative="1" as="geometry" />
        </mxCell>
        <mxCell id="12nJAnWYhsMqt3iqN0e7-3" value="Document partition 1" style="rounded=1;whiteSpace=wrap;html=1;" vertex="1" parent="1">
          <mxGeometry x="240" y="80" width="120" height="60" as="geometry" />
        </mxCell>
        <mxCell id="12nJAnWYhsMqt3iqN0e7-16" style="edgeStyle=orthogonalEdgeStyle;rounded=0;orthogonalLoop=1;jettySize=auto;html=1;exitX=1;exitY=0.5;exitDx=0;exitDy=0;entryX=0;entryY=0.5;entryDx=0;entryDy=0;" edge="1" parent="1" source="12nJAnWYhsMqt3iqN0e7-5" target="12nJAnWYhsMqt3iqN0e7-8">
          <mxGeometry relative="1" as="geometry" />
        </mxCell>
        <mxCell id="12nJAnWYhsMqt3iqN0e7-5" value="Document partition 2" style="rounded=1;whiteSpace=wrap;html=1;" vertex="1" parent="1">
          <mxGeometry x="240" y="160" width="120" height="60" as="geometry" />
        </mxCell>
        <mxCell id="12nJAnWYhsMqt3iqN0e7-17" style="edgeStyle=orthogonalEdgeStyle;rounded=0;orthogonalLoop=1;jettySize=auto;html=1;exitX=1;exitY=0.5;exitDx=0;exitDy=0;entryX=0;entryY=0.5;entryDx=0;entryDy=0;" edge="1" parent="1" source="12nJAnWYhsMqt3iqN0e7-6" target="12nJAnWYhsMqt3iqN0e7-9">
          <mxGeometry relative="1" as="geometry" />
        </mxCell>
        <mxCell id="12nJAnWYhsMqt3iqN0e7-6" value="Document partition 3" style="rounded=1;whiteSpace=wrap;html=1;" vertex="1" parent="1">
          <mxGeometry x="240" y="240" width="120" height="60" as="geometry" />
        </mxCell>
        <mxCell id="12nJAnWYhsMqt3iqN0e7-18" style="edgeStyle=orthogonalEdgeStyle;rounded=0;orthogonalLoop=1;jettySize=auto;html=1;exitX=1;exitY=0.5;exitDx=0;exitDy=0;entryX=0;entryY=0.25;entryDx=0;entryDy=0;" edge="1" parent="1" source="12nJAnWYhsMqt3iqN0e7-7" target="12nJAnWYhsMqt3iqN0e7-10">
          <mxGeometry relative="1" as="geometry" />
        </mxCell>
        <mxCell id="12nJAnWYhsMqt3iqN0e7-7" value="Inverted index 1" style="rounded=1;whiteSpace=wrap;html=1;" vertex="1" parent="1">
          <mxGeometry x="440" y="80" width="120" height="60" as="geometry" />
        </mxCell>
        <mxCell id="12nJAnWYhsMqt3iqN0e7-19" style="edgeStyle=orthogonalEdgeStyle;rounded=0;orthogonalLoop=1;jettySize=auto;html=1;exitX=1;exitY=0.5;exitDx=0;exitDy=0;" edge="1" parent="1" source="12nJAnWYhsMqt3iqN0e7-8" target="12nJAnWYhsMqt3iqN0e7-10">
          <mxGeometry relative="1" as="geometry" />
        </mxCell>
        <mxCell id="12nJAnWYhsMqt3iqN0e7-8" value="Inverted index 2" style="rounded=1;whiteSpace=wrap;html=1;" vertex="1" parent="1">
          <mxGeometry x="440" y="160" width="120" height="60" as="geometry" />
        </mxCell>
        <mxCell id="12nJAnWYhsMqt3iqN0e7-20" style="edgeStyle=orthogonalEdgeStyle;rounded=0;orthogonalLoop=1;jettySize=auto;html=1;exitX=1;exitY=0.5;exitDx=0;exitDy=0;entryX=0;entryY=0.75;entryDx=0;entryDy=0;" edge="1" parent="1" source="12nJAnWYhsMqt3iqN0e7-9" target="12nJAnWYhsMqt3iqN0e7-10">
          <mxGeometry relative="1" as="geometry" />
        </mxCell>
        <mxCell id="12nJAnWYhsMqt3iqN0e7-9" value="Inverted index 3" style="rounded=1;whiteSpace=wrap;html=1;" vertex="1" parent="1">
          <mxGeometry x="440" y="240" width="120" height="60" as="geometry" />
        </mxCell>
        <mxCell id="12nJAnWYhsMqt3iqN0e7-10" value="Merger" style="rounded=1;whiteSpace=wrap;html=1;" vertex="1" parent="1">
          <mxGeometry x="640" y="160" width="120" height="60" as="geometry" />
        </mxCell>
      </root>
    </mxGraphModel>
  </diagram>
</mxfile>
